<svg width="405" height="418" viewBox="0 0 405 418" fill="none" xmlns="http://www.w3.org/2000/svg">
<mask id="path-1-inside-1_41_128" fill="white">
<path fill-rule="evenodd" clip-rule="evenodd" d="M361.902 319.356L109.613 38.4128L42.7759 98.4332L42.776 98.4333C42.7759 98.4333 42.7759 98.4334 42.7759 98.4334C19.1514 119.648 56.4768 199.738 126.144 277.318C195.812 354.898 271.44 400.592 295.065 379.377C295.083 379.36 295.101 379.344 295.12 379.327L361.902 319.356Z"/>
</mask>
<path fill-rule="evenodd" clip-rule="evenodd" d="M361.902 319.356L109.613 38.4128L42.7759 98.4332L42.776 98.4333C42.7759 98.4333 42.7759 98.4334 42.7759 98.4334C19.1514 119.648 56.4768 199.738 126.144 277.318C195.812 354.898 271.44 400.592 295.065 379.377C295.083 379.36 295.101 379.344 295.12 379.327L361.902 319.356Z" fill="#0077FF"/>
<path d="M109.613 38.4128L111.101 37.0766L109.765 35.5885L108.277 36.9248L109.613 38.4128ZM361.902 319.356L363.238 320.844L364.727 319.508L363.39 318.02L361.902 319.356ZM42.7759 98.4332L41.4396 96.9451L39.9515 98.2814L41.2878 99.7695L42.7759 98.4332ZM42.776 98.4333L44.1122 99.9214L45.6003 98.5851L44.264 97.097L42.776 98.4333ZM295.12 379.327L293.783 377.839L293.778 377.844L295.12 379.327ZM108.125 39.7491L360.414 320.692L363.39 318.02L111.101 37.0766L108.125 39.7491ZM44.1122 99.9213L110.949 39.9009L108.277 36.9248L41.4396 96.9451L44.1122 99.9213ZM44.264 97.097L44.2639 97.0969L41.2878 99.7695L41.2879 99.7696L44.264 97.097ZM44.1122 99.9215C44.1122 99.9214 44.1122 99.9214 44.1122 99.9214L41.4397 96.9452C41.4396 96.9453 41.4396 96.9453 41.4396 96.9453L44.1122 99.9215ZM127.633 275.982C92.8928 237.296 66.2708 198.042 51.2884 165.894C43.7917 149.808 39.2597 135.608 38.027 124.209C36.7882 112.753 38.9173 104.586 44.1122 99.9215L41.4396 96.9453C34.8222 102.888 32.7579 112.688 34.0502 124.639C35.3488 136.648 40.0728 151.298 47.6628 167.584C62.8539 200.179 89.7285 239.759 124.656 278.654L127.633 275.982ZM293.729 377.889C288.534 382.554 280.186 383.795 268.928 381.336C257.727 378.889 244.095 372.861 228.905 363.684C198.548 345.343 162.372 314.667 127.633 275.982L124.656 278.654C159.584 317.549 196.057 348.511 226.837 367.108C242.216 376.399 256.274 382.666 268.075 385.244C279.819 387.809 289.784 386.807 296.401 380.865L293.729 377.889ZM293.778 377.844C293.761 377.86 293.745 377.874 293.729 377.889L296.401 380.865C296.422 380.846 296.442 380.828 296.462 380.81L293.778 377.844ZM360.566 317.868L293.783 377.839L296.456 380.815L363.238 320.844L360.566 317.868Z" fill="#0077FF" mask="url(#path-1-inside-1_41_128)"/>
<path d="M361.234 318.612C355.684 323.597 346.932 324.779 335.552 322.293C324.201 319.813 310.462 313.725 295.225 304.519C264.762 286.114 228.513 255.367 193.726 216.63C158.939 177.892 132.254 138.556 117.219 106.296C109.699 90.1601 105.119 75.848 103.87 64.2966C102.618 52.7163 104.731 44.1414 110.281 39.1571C115.832 34.1727 124.584 32.9908 135.963 35.4769C147.314 37.9567 161.053 44.0441 176.29 53.25C206.753 71.6551 243.003 102.402 277.79 141.14C312.576 179.878 339.261 219.214 354.296 251.474C361.816 267.609 366.396 281.921 367.645 293.473C368.897 305.053 366.785 313.628 361.234 318.612Z" fill="white" stroke="#0077FF" stroke-width="2"/>
</svg>
