<svg width="298" height="319" viewBox="0 0 298 319" fill="none" xmlns="http://www.w3.org/2000/svg">
<path d="M102.71 116.092L157.437 144.08L157.713 144.222L157.962 144.037L228.234 91.8991L191.602 160.983L191.364 161.431L191.816 161.662L246.155 189.452L168.667 204.629L168.433 204.675L168.322 204.886L131.331 274.645L120.489 214.583L120.399 214.083L119.901 214.181L43.1638 229.211L113.435 177.073L113.684 176.888L113.629 176.583L102.71 116.092Z" fill="white" stroke="#0077FF"/>
<path d="M198.585 50.0267L229.13 91.1952L191.025 162.124L160.48 120.956L198.585 50.0267Z" fill="#0077FF" stroke="#0077FF"/>
<path d="M122.046 213.302L91.5015 172.134L12.571 188.039L43.1158 229.207L122.046 213.302Z" fill="#0077FF" stroke="#0077FF"/>
<path d="M72.1708 74.9313L126.448 102.69L126.863 102.902L127.237 102.624L196.621 51.1454L160.506 119.253L160.15 119.925L160.827 120.272L214.523 147.733L137.745 162.771L137.394 162.84L137.226 163.155L100.574 232.277L89.8602 172.925L89.725 172.176L88.978 172.322L13.3257 187.14L82.7095 135.661L83.0834 135.384L83.0007 134.925L72.1708 74.9313Z" fill="white" stroke="#0077FF" stroke-width="1.5"/>
<path d="M131.224 275.801L100.686 234.641L137.469 164.706L167.684 205.43L131.224 275.801Z" fill="#0077FF" stroke="#0077FF"/>
<path d="M137.497 163.989L168.042 205.158L246.972 189.253L216.428 148.085L137.497 163.989Z" fill="#0077FF" stroke="#0077FF"/>
</svg>
